# xmcd CD database file
#
# Track frame offsets:
#	150
#	23339
#	38810
#	57889
#	79317
#	99849
#	115910
#	131800
#	150338
#	164871
#	189267
#	210208
#
# Disc length: 3054 seconds
#
# Revision: 0
# Processed by: cddbd v1.5.2PL0 Copyright (c) Steve Scherf et al.
# Submitted via: CDex 1.70beta2
#
DISCID=8d0bec0c
DTITLE=Vienna Teng - Inland Territory
DYEAR=1900
DGENRE=Jazz
TTITLE0=The Last Snowfall
TTITLE1=White Light 
TTITLE2=Antebellum 
TTITLE3=Kansas 
TTITLE4=In Another Life 
TTITLE5=Grandmother Song 
TTITLE6=Stray Italian Greyhound 
TTITLE7=Augustine 
TTITLE8=No Gringo 
TTITLE9=Watershed 
TTITLE10=Radio 
TTITLE11=St. Stephen's Cross
EXTD=
EXTT0=
EXTT1=
EXTT2=
EXTT3=
EXTT4=
EXTT5=
EXTT6=
EXTT7=
EXTT8=
EXTT9=
EXTT10=
EXTT11=
PLAYORDER=
